<svg 
 xmlns="http://www.w3.org/2000/svg"
 xmlns:xlink="http://www.w3.org/1999/xlink"
 width="15px" height="17px">
<path fill-rule="evenodd"  fill="rgb(240, 202, 109)"
 d="M14.231,17.000 L0.769,17.000 C0.345,17.000 -0.000,16.684 -0.000,16.292 L-0.000,0.707 C-0.000,0.315 0.345,-0.000 0.769,-0.000 L14.231,-0.000 C14.655,-0.000 15.000,0.315 15.000,0.707 L15.000,16.292 C15.000,16.684 14.655,17.000 14.231,17.000 ZM13.462,1.415 L1.537,1.415 L1.537,15.584 L13.462,15.584 L13.462,1.415 ZM3.382,2.335 L11.617,2.335 C12.041,2.335 12.386,2.650 12.386,3.042 L12.386,7.282 C12.386,7.670 12.041,7.990 11.617,7.990 L3.382,7.990 C2.959,7.990 2.614,7.674 2.614,7.282 L2.614,3.042 C2.614,2.650 2.959,2.335 3.382,2.335 ZM4.151,6.571 L10.849,6.571 L10.849,3.747 L4.151,3.747 L4.151,6.571 ZM3.997,9.853 L5.899,9.853 C6.322,9.853 6.667,10.168 6.667,10.560 C6.667,10.952 6.322,11.268 5.899,11.268 L3.997,11.268 C3.574,11.268 3.229,10.952 3.229,10.560 C3.229,10.168 3.574,9.853 3.997,9.853 ZM3.997,12.829 L5.899,12.829 C6.322,12.829 6.667,13.145 6.667,13.537 C6.667,13.926 6.322,14.245 5.899,14.245 L3.997,14.245 C3.574,14.245 3.229,13.929 3.229,13.537 C3.229,13.145 3.574,12.829 3.997,12.829 ZM9.022,9.853 L10.924,9.853 C11.347,9.853 11.692,10.168 11.692,10.560 C11.696,10.952 11.351,11.268 10.924,11.268 L9.022,11.268 C8.599,11.268 8.254,10.952 8.254,10.560 C8.254,10.168 8.599,9.853 9.022,9.853 ZM9.022,12.829 L10.924,12.829 C11.347,12.829 11.692,13.145 11.692,13.537 C11.696,13.926 11.351,14.245 10.924,14.245 L9.022,14.245 C8.599,14.245 8.254,13.929 8.254,13.537 C8.254,13.145 8.599,12.829 9.022,12.829 Z"/>
</svg>