<svg 
 xmlns="http://www.w3.org/2000/svg"
 xmlns:xlink="http://www.w3.org/1999/xlink"
 width="19px" height="15px">
<path fill-rule="evenodd"  fill="rgb(89, 120, 151)"
 d="M19.000,7.501 C19.000,7.528 18.998,7.555 18.995,7.582 C18.994,7.594 18.992,7.607 18.990,7.619 C18.987,7.633 18.986,7.648 18.983,7.662 C18.980,7.676 18.975,7.690 18.972,7.704 C18.968,7.717 18.965,7.729 18.961,7.741 C18.957,7.755 18.952,7.768 18.946,7.782 C18.942,7.794 18.937,7.806 18.932,7.818 C18.927,7.831 18.920,7.843 18.914,7.855 C18.908,7.868 18.902,7.880 18.895,7.892 C18.888,7.904 18.880,7.915 18.873,7.927 C18.865,7.939 18.858,7.951 18.850,7.962 C18.841,7.975 18.831,7.987 18.821,7.999 C18.813,8.009 18.806,8.018 18.798,8.028 C18.779,8.049 18.760,8.070 18.739,8.089 L16.067,10.589 C15.719,10.914 15.155,10.914 14.808,10.589 C14.460,10.264 14.460,9.736 14.808,9.410 L15.959,8.333 L5.641,8.333 C5.149,8.333 4.750,7.960 4.750,7.500 C4.750,7.040 5.149,6.666 5.641,6.666 L15.959,6.666 L14.808,5.589 C14.460,5.263 14.460,4.736 14.808,4.410 C14.981,4.248 15.209,4.166 15.437,4.166 C15.665,4.166 15.893,4.248 16.067,4.410 L18.739,6.910 C18.740,6.911 18.741,6.912 18.742,6.913 C18.761,6.932 18.780,6.951 18.798,6.971 C18.807,6.981 18.814,6.992 18.822,7.002 C18.831,7.013 18.841,7.025 18.850,7.037 C18.858,7.049 18.866,7.061 18.874,7.074 C18.881,7.085 18.888,7.095 18.895,7.107 C18.902,7.119 18.908,7.132 18.914,7.145 C18.920,7.157 18.927,7.169 18.932,7.181 C18.937,7.193 18.942,7.206 18.947,7.218 C18.952,7.231 18.957,7.244 18.961,7.258 C18.965,7.270 18.968,7.283 18.972,7.295 C18.975,7.309 18.980,7.323 18.983,7.337 C18.986,7.351 18.988,7.366 18.990,7.381 C18.992,7.393 18.994,7.405 18.995,7.417 C18.998,7.444 19.000,7.471 19.000,7.498 C19.000,7.499 19.000,7.499 19.000,7.500 C19.000,7.500 19.000,7.501 19.000,7.501 ZM12.172,5.000 C11.680,5.000 11.281,4.627 11.281,4.166 L11.281,1.666 L1.781,1.666 L1.781,13.333 L11.281,13.333 L11.281,10.833 C11.281,10.373 11.680,10.000 12.172,10.000 C12.663,10.000 13.062,10.373 13.062,10.833 L13.062,14.166 C13.062,14.627 12.663,15.000 12.172,15.000 L0.891,15.000 C0.399,15.000 -0.000,14.627 -0.000,14.166 L-0.000,0.833 C-0.000,0.373 0.399,-0.000 0.891,-0.000 L12.172,-0.000 C12.663,-0.000 13.062,0.373 13.062,0.833 L13.062,4.166 C13.062,4.627 12.663,5.000 12.172,5.000 Z"/>
</svg>