<svg 
 xmlns="http://www.w3.org/2000/svg"
 xmlns:xlink="http://www.w3.org/1999/xlink"
 width="21px" height="19px">
<path fill-rule="evenodd"  fill="rgb(132, 222, 233)"
 d="M5.072,12.415 L5.072,9.175 C5.072,8.459 5.665,7.879 6.396,7.879 C7.128,7.879 7.719,8.459 7.719,9.175 L7.719,12.415 C7.719,13.131 7.128,13.711 6.396,13.711 C5.665,13.711 5.072,13.131 5.072,12.415 ZM8.382,12.415 L8.382,7.879 C8.382,7.163 8.974,6.582 9.706,6.582 C10.437,6.582 11.030,7.163 11.030,7.879 L11.030,12.415 C11.030,13.131 10.437,13.711 9.706,13.711 C8.974,13.711 8.382,13.131 8.382,12.415 ZM11.691,12.415 L11.691,6.582 C11.691,5.866 12.283,5.286 13.014,5.286 C13.746,5.286 14.338,5.866 14.338,6.582 L14.338,12.415 C14.338,13.131 13.746,13.711 13.014,13.711 C12.283,13.711 11.691,13.131 11.691,12.415 ZM20.895,8.479 L18.689,11.072 C18.605,11.170 18.481,11.227 18.350,11.227 C18.220,11.227 18.095,11.170 18.011,11.072 L15.805,8.479 C15.696,8.350 15.671,8.171 15.744,8.020 C15.817,7.868 15.973,7.771 16.144,7.771 L17.442,7.771 C16.637,4.313 13.477,1.723 9.705,1.723 C5.326,1.723 1.764,5.211 1.764,9.499 C1.764,13.787 5.326,17.275 9.706,17.276 C12.532,17.276 15.167,15.785 16.585,13.388 C16.828,12.974 17.368,12.834 17.790,13.072 C18.212,13.311 18.356,13.840 18.112,14.253 C16.381,17.183 13.159,19.003 9.706,19.003 C4.353,19.003 -0.001,14.739 -0.001,9.499 C-0.001,4.258 4.353,-0.006 9.706,-0.006 C14.454,-0.006 18.416,3.353 19.248,7.771 L20.556,7.771 C20.727,7.771 20.882,7.867 20.955,8.020 C21.029,8.171 21.004,8.350 20.895,8.479 Z"/>
</svg>