<svg 
 xmlns="http://www.w3.org/2000/svg"
 xmlns:xlink="http://www.w3.org/1999/xlink"
 width="17px" height="17px">
<path fill-rule="evenodd"  fill="rgb(185, 136, 243)"
 d="M16.227,4.636 C15.800,4.636 15.454,4.290 15.454,3.863 L15.454,2.744 L10.355,8.252 C10.212,8.406 10.013,8.495 9.803,8.499 C9.594,8.504 9.390,8.422 9.242,8.273 L7.233,6.265 L1.340,12.624 C1.187,12.788 0.980,12.871 0.773,12.871 C0.585,12.871 0.396,12.803 0.248,12.666 C-0.065,12.375 -0.084,11.886 0.206,11.574 L6.645,4.626 C6.788,4.472 6.988,4.383 7.198,4.378 C7.408,4.375 7.610,4.456 7.759,4.605 L9.767,6.613 L14.459,1.545 L13.136,1.545 C12.710,1.545 12.364,1.199 12.364,0.772 C12.364,0.346 12.710,-0.001 13.136,-0.001 L16.227,-0.001 C16.234,-0.001 16.241,0.000 16.247,0.000 C16.261,0.001 16.276,0.002 16.290,0.003 C16.302,0.004 16.313,0.005 16.325,0.006 C16.338,0.008 16.351,0.010 16.364,0.012 C16.377,0.015 16.389,0.017 16.401,0.020 C16.413,0.023 16.425,0.026 16.437,0.029 C16.450,0.033 16.462,0.036 16.473,0.040 C16.485,0.044 16.497,0.049 16.509,0.053 C16.521,0.058 16.532,0.063 16.543,0.068 C16.555,0.073 16.566,0.078 16.578,0.084 C16.589,0.090 16.600,0.096 16.611,0.102 C16.622,0.108 16.632,0.115 16.643,0.122 C16.654,0.129 16.665,0.136 16.675,0.144 C16.685,0.151 16.695,0.158 16.704,0.165 C16.715,0.174 16.726,0.183 16.737,0.192 C16.742,0.196 16.747,0.201 16.752,0.205 C16.756,0.208 16.759,0.212 16.762,0.215 C16.772,0.225 16.782,0.235 16.791,0.245 C16.799,0.254 16.808,0.263 16.815,0.272 C16.824,0.281 16.831,0.291 16.839,0.302 C16.847,0.312 16.855,0.322 16.862,0.332 C16.869,0.342 16.875,0.352 16.881,0.362 C16.888,0.374 16.896,0.385 16.902,0.396 C16.908,0.407 16.913,0.418 16.918,0.428 C16.924,0.440 16.930,0.451 16.935,0.463 C16.940,0.475 16.945,0.487 16.949,0.499 C16.953,0.510 16.958,0.521 16.961,0.532 C16.966,0.545 16.969,0.558 16.973,0.571 C16.975,0.582 16.979,0.594 16.981,0.605 C16.984,0.618 16.986,0.631 16.988,0.644 C16.990,0.656 16.992,0.668 16.994,0.680 C16.995,0.692 16.996,0.705 16.997,0.717 C16.998,0.731 16.999,0.744 16.999,0.758 C16.999,0.763 17.000,0.767 17.000,0.772 L17.000,3.863 C17.000,4.290 16.654,4.636 16.227,4.636 ZM0.773,15.454 L16.227,15.454 C16.654,15.454 17.000,15.800 17.000,16.227 C17.000,16.654 16.654,17.000 16.227,17.000 L0.773,17.000 C0.346,17.000 0.000,16.654 0.000,16.227 C0.000,15.800 0.346,15.454 0.773,15.454 Z"/>
</svg>